:SAMPLES-PER-SECOND 24
:FULLY-SPECIFIED
:DEGREES
621
root  -7.65145 35.2251 -33.899 -6.62016 -35.2209 5.55124
RightUpLeg  -31.5862 -23.5307 -22.2752
RightLeg  41.255 11.2143 10.106
RightFoot  3.05157 -1.5373 12.2978
RightToes  -1.46215e-006 3.27826e-006 1.63871e-007
Spine  7.28597 -1.76684 -3.02162
Spine1  6.86224 0.813548 -12.6025
HEad  -16.3407 -32.1163 21.5297
LeftShoulder1  3.34195 -7.75724 -23.4428
LeftArm  27.8214 10.8836 -40.2836
LeftForeArm  37.1245 -76.368 -113.874
LeftHand  0.767643 10.1819 18.899
RightShoulder  0.00930132 -3.40953 2.96145
RightArm  -84.7399 51.6159 -44.4289
RightForeArm  25.8546 -1.89622 3.25289
RightHand  -1.54408 3.35892 -20.4999
LeftUpLeg  -9.63872 36.4284 12.622
LeftLeg  51.1445 1.20621 2.10372
LeftFoot  -23.7 -1.29122 -13.1883
LeftToes  1.24762e-006 1.46925e-008 1.29056e-009
622
root  -7.87018 35.2043 -33.9055 -9.95451 -39.7681 8.78534
RightUpLeg  -33.0585 -19.3826 -23.33
RightLeg  42.2522 11.4921 10.7175
RightFoot  2.95022 -1.51959 12.24
RightToes  -1.46215e-006 3.27826e-006 1.63871e-007
Spine  6.42053 -5.8832 -7.6438
Spine1  8.20962 -3.68054 -12.2665
HEad  -12.3841 -20.242 18.5511
LeftShoulder1  3.28334 -8.3029 -21.4624
LeftArm  28.1609 -1.86626 -52.7935
LeftForeArm  21.2409 -77.5379 -97.3407
LeftHand  0.690067 11.0746 14.9568
RightShoulder  -0.0164066 -3.65299 2.41046
RightArm  -123.191 66.5986 -63.1333
RightForeArm  29.1713 -2.4576 1.77766
RightHand  -0.781229 0.0205233 -16.647
LeftUpLeg  -4.88642 39.7937 13.3647
LeftLeg  49.622 1.61529 2.51938
LeftFoot  -23.7861 -1.34371 -13.5763
LeftToes  1.24762e-006 1.46925e-008 1.29056e-009
623
root  -8.0039 35.2019 -33.8664 -13.0372 -43.3651 11.1655
RightUpLeg  -33.5999 -16.2193 -23.8781
RightLeg  42.7577 11.9218 11.3088
RightFoot  2.92616 -1.51829 12.2492
RightToes  -1.46215e-006 3.27826e-006 1.63871e-007
Spine  7.30701 -9.83382 -13.0643
Spine1  7.83446 -8.80595 -10.1479
HEad  -8.76663 -8.52022 17.0898
LeftShoulder1  3.00232 -8.43527 -18.6011
LeftArm  28.0676 -23.2894 -66.6053
LeftForeArm  -14.9746 -75.2544 -55.1572
LeftHand  0.128301 7.50936 7.76546
RightShoulder  -0.00866112 -3.55988 1.66057
RightArm  -174.269 82.1628 -97.5499
RightForeArm  24.6361 18.076 2.8388
RightHand  -0.102721 -4.7189 -15.2282
LeftUpLeg  -0.00726682 43.0201 15.4477
LeftLeg  48.4609 1.50215 2.29147
LeftFoot  -23.9521 -1.32652 -13.2532
LeftToes  1.24762e-006 1.46925e-008 1.29056e-009
624
root  -8.04236 35.1884 -33.7523 -14.6442 -45.5398 12.1807
RightUpLeg  -33.7678 -14.6202 -23.9142
RightLeg  42.942 12.4458 11.8722
RightFoot  2.98134 -1.56873 12.602
RightToes  -1.46215e-006 3.27826e-006 1.63871e-007
Spine  9.63451 -11.7692 -17.8751
Spine1  5.97681 -12.4763 -6.30468
HEad  -5.90531 -2.63308 17.5411
LeftShoulder1  2.83253 -8.00795 -18.0184
LeftArm  37.3079 -45.4379 -85.9442
LeftForeArm  -50.1004 -54.6655 -18.7983
LeftHand  -0.164439 1.79964 5.09854
RightShoulder  0.209119 -1.74928 4.00732
RightArm  42.6539 73.5273 125.609
RightForeArm  21.8498 52.217 12.7753
RightHand  0.480897 -8.6868 -17.5309
LeftUpLeg  3.23653 45.2611 17.5755
LeftLeg  48.098 1.20479 1.91109
LeftFoot  -24.2684 -1.3008 -12.7212
LeftToes  1.24762e-006 1.46925e-008 1.29056e-009
625
root  -7.98617 35.1733 -33.5491 -14.6547 -46.8217 12.2296
RightUpLeg  -34.1411 -14.0485 -23.6605
RightLeg  42.706 12.8914 12.1895
RightFoot  3.14303 -1.66452 13.2149
RightToes  -1.46215e-006 3.27826e-006 1.63871e-007
Spine  10.8003 -12.2903 -20.4199
Spine1  5.31907 -14.2982 -2.36494
HEad  -5.80436 -0.572281 16.584
LeftShoulder1  2.72929 -7.28401 -18.7654
LeftArm  59.3816 -57.6472 -109.272
LeftForeArm  -69.6707 -31.765 -9.01954
LeftHand  -0.266461 1.78337 8.60452
RightShoulder  0.818411 1.38661 9.46298
RightArm  30.3918 54.4607 105.964
RightForeArm  48.333 77.5493 53.7405
RightHand  0.828899 -9.58952 -23.209
LeftUpLeg  4.03833 46.2314 18.1754
LeftLeg  48.2266 1.36675 2.11373
LeftFoot  -24.6489 -1.33373 -12.6552
LeftToes  1.24762e-006 1.46925e-008 1.29056e-009
626
root  -7.79948 35.1621 -33.2995 -14.162 -47.8061 11.8499
RightUpLeg  -34.3437 -13.778 -23.385
RightLeg  41.94 13.4175 12.3466
RightFoot  3.53174 -1.77467 13.7232
RightToes  -1.46215e-006 3.27826e-006 1.63871e-007
Spine  10.1194 -11.9927 -21.1338
Spine1  6.82742 -14.7958 1.1826
HEad  -8.11197 0.304864 13.2481
LeftShoulder1  2.59163 -7.03974 -17.9926
LeftArm  76.6161 -61.7693 -123.5
LeftForeArm  -76.9694 -25.913 -7.70958
LeftHand  -0.206059 3.04247 9.63947
RightShoulder  1.21986 2.83633 12.2678
RightArm  28.0044 45.131 93.9973
RightForeArm  99.5887 78.0804 117
RightHand  0.640071 -7.87305 -29.5004
LeftUpLeg  3.64548 46.2141 17.6057
LeftLeg  48.5288 2.09264 3.0134
LeftFoot  -25.1505 -1.44689 -13.1432
LeftToes  1.24762e-006 1.46925e-008 1.29056e-009
627
root  -7.48307 35.1754 -33.0498 -13.7863 -48.1428 11.3214
RightUpLeg  -33.8638 -13.5827 -23.5418
RightLeg  40.6154 13.8836 12.1977
RightFoot  4.21152 -1.94055 14.3531
RightToes  -1.46215e-006 3.27826e-006 1.63871e-007
Spine  9.10798 -11.4026 -20.4507
Spine1  8.09907 -14.4393 2.80547
HEad  -8.80949 -0.772109 11.429
LeftShoulder1  2.39477 -6.93087 -16.2176
LeftArm  75.065 -62.4542 -124.774
LeftForeArm  -70.5385 -29.6838 -8.69804
LeftHand  -0.288436 1.48586 8.49351
RightShoulder  1.26719 2.83847 13.0497
RightArm  20.4254 43.0701 82.7028
RightForeArm  102.316 75.0372 131.409
RightHand  0.476008 -6.91488 -34.7664
LeftUpLeg  2.97302 45.5327 16.4742
LeftLeg  48.7534 2.95514 4.08598
LeftFoot  -25.69 -1.57942 -13.7146
LeftToes  1.24762e-006 1.46925e-008 1.29056e-009
